<mxfile host="app.diagrams.net" modified="2021-09-14T23:37:16.333Z" agent="5.0 (Windows NT 10.0; Win64; x64) AppleWebKit/537.36 (KHTML, like Gecko) Chrome/93.0.4577.82 Safari/537.36" etag="Aq6X0etDUK0Wjoga_wVf" version="15.2.7" type="github">
  <diagram id="C5RBs43oDa-KdzZeNtuy" name="Page-1">
    <mxGraphModel dx="868" dy="460" grid="1" gridSize="10" guides="1" tooltips="1" connect="1" arrows="1" fold="1" page="1" pageScale="1" pageWidth="827" pageHeight="1169" math="0" shadow="0">
      <root>
        <mxCell id="WIyWlLk6GJQsqaUBKTNV-0" />
        <mxCell id="WIyWlLk6GJQsqaUBKTNV-1" parent="WIyWlLk6GJQsqaUBKTNV-0" />
        <mxCell id="Oi4V8ApNeVlHji8FJTxC-2" style="edgeStyle=orthogonalEdgeStyle;rounded=0;orthogonalLoop=1;jettySize=auto;html=1;entryX=0.5;entryY=0;entryDx=0;entryDy=0;" edge="1" parent="WIyWlLk6GJQsqaUBKTNV-1" source="Oi4V8ApNeVlHji8FJTxC-0" target="Oi4V8ApNeVlHji8FJTxC-1">
          <mxGeometry relative="1" as="geometry" />
        </mxCell>
        <mxCell id="Oi4V8ApNeVlHji8FJTxC-0" value="Begin" style="ellipse;whiteSpace=wrap;html=1;" vertex="1" parent="WIyWlLk6GJQsqaUBKTNV-1">
          <mxGeometry x="340" y="10" width="120" height="80" as="geometry" />
        </mxCell>
        <mxCell id="Oi4V8ApNeVlHji8FJTxC-4" style="edgeStyle=orthogonalEdgeStyle;rounded=0;orthogonalLoop=1;jettySize=auto;html=1;entryX=0.5;entryY=0;entryDx=0;entryDy=0;" edge="1" parent="WIyWlLk6GJQsqaUBKTNV-1" source="Oi4V8ApNeVlHji8FJTxC-1" target="Oi4V8ApNeVlHji8FJTxC-3">
          <mxGeometry relative="1" as="geometry" />
        </mxCell>
        <mxCell id="Oi4V8ApNeVlHji8FJTxC-1" value="Nhập tham số a và b" style="shape=parallelogram;perimeter=parallelogramPerimeter;whiteSpace=wrap;html=1;fixedSize=1;" vertex="1" parent="WIyWlLk6GJQsqaUBKTNV-1">
          <mxGeometry x="325" y="130" width="150" height="60" as="geometry" />
        </mxCell>
        <mxCell id="Oi4V8ApNeVlHji8FJTxC-6" style="edgeStyle=orthogonalEdgeStyle;rounded=0;orthogonalLoop=1;jettySize=auto;html=1;entryX=0;entryY=0.5;entryDx=0;entryDy=0;" edge="1" parent="WIyWlLk6GJQsqaUBKTNV-1" source="Oi4V8ApNeVlHji8FJTxC-3" target="Oi4V8ApNeVlHji8FJTxC-5">
          <mxGeometry relative="1" as="geometry" />
        </mxCell>
        <mxCell id="Oi4V8ApNeVlHji8FJTxC-9" value="" style="edgeStyle=orthogonalEdgeStyle;rounded=0;orthogonalLoop=1;jettySize=auto;html=1;" edge="1" parent="WIyWlLk6GJQsqaUBKTNV-1" source="Oi4V8ApNeVlHji8FJTxC-3" target="Oi4V8ApNeVlHji8FJTxC-8">
          <mxGeometry relative="1" as="geometry" />
        </mxCell>
        <mxCell id="Oi4V8ApNeVlHji8FJTxC-3" value="a==0 &amp;amp;&amp;amp; b==0" style="rhombus;whiteSpace=wrap;html=1;" vertex="1" parent="WIyWlLk6GJQsqaUBKTNV-1">
          <mxGeometry x="345" y="230" width="110" height="80" as="geometry" />
        </mxCell>
        <mxCell id="Oi4V8ApNeVlHji8FJTxC-19" style="edgeStyle=orthogonalEdgeStyle;rounded=0;orthogonalLoop=1;jettySize=auto;html=1;" edge="1" parent="WIyWlLk6GJQsqaUBKTNV-1" source="Oi4V8ApNeVlHji8FJTxC-5">
          <mxGeometry relative="1" as="geometry">
            <mxPoint x="760" y="270" as="targetPoint" />
          </mxGeometry>
        </mxCell>
        <mxCell id="Oi4V8ApNeVlHji8FJTxC-5" value="Print &lt;br&gt;&quot;Phương trình vô nghiệm&quot;" style="shape=parallelogram;perimeter=parallelogramPerimeter;whiteSpace=wrap;html=1;fixedSize=1;" vertex="1" parent="WIyWlLk6GJQsqaUBKTNV-1">
          <mxGeometry x="540" y="240" width="180" height="60" as="geometry" />
        </mxCell>
        <mxCell id="Oi4V8ApNeVlHji8FJTxC-11" value="" style="edgeStyle=orthogonalEdgeStyle;rounded=0;orthogonalLoop=1;jettySize=auto;html=1;" edge="1" parent="WIyWlLk6GJQsqaUBKTNV-1" source="Oi4V8ApNeVlHji8FJTxC-8" target="Oi4V8ApNeVlHji8FJTxC-10">
          <mxGeometry relative="1" as="geometry" />
        </mxCell>
        <mxCell id="Oi4V8ApNeVlHji8FJTxC-13" value="" style="edgeStyle=orthogonalEdgeStyle;rounded=0;orthogonalLoop=1;jettySize=auto;html=1;" edge="1" parent="WIyWlLk6GJQsqaUBKTNV-1" source="Oi4V8ApNeVlHji8FJTxC-8" target="Oi4V8ApNeVlHji8FJTxC-12">
          <mxGeometry relative="1" as="geometry" />
        </mxCell>
        <mxCell id="Oi4V8ApNeVlHji8FJTxC-8" value="a==0 &amp;amp;&amp;amp; b!=0" style="rhombus;whiteSpace=wrap;html=1;" vertex="1" parent="WIyWlLk6GJQsqaUBKTNV-1">
          <mxGeometry x="345" y="360" width="110" height="80" as="geometry" />
        </mxCell>
        <mxCell id="Oi4V8ApNeVlHji8FJTxC-20" style="edgeStyle=orthogonalEdgeStyle;rounded=0;orthogonalLoop=1;jettySize=auto;html=1;" edge="1" parent="WIyWlLk6GJQsqaUBKTNV-1" source="Oi4V8ApNeVlHji8FJTxC-10">
          <mxGeometry relative="1" as="geometry">
            <mxPoint x="760" y="400" as="targetPoint" />
          </mxGeometry>
        </mxCell>
        <mxCell id="Oi4V8ApNeVlHji8FJTxC-10" value="Print&lt;br&gt;&quot;Phương trình vô nghiệm&quot;" style="shape=parallelogram;perimeter=parallelogramPerimeter;whiteSpace=wrap;html=1;fixedSize=1;" vertex="1" parent="WIyWlLk6GJQsqaUBKTNV-1">
          <mxGeometry x="540" y="370" width="180" height="60" as="geometry" />
        </mxCell>
        <mxCell id="Oi4V8ApNeVlHji8FJTxC-15" value="" style="edgeStyle=orthogonalEdgeStyle;rounded=0;orthogonalLoop=1;jettySize=auto;html=1;entryX=0.5;entryY=0;entryDx=0;entryDy=0;" edge="1" parent="WIyWlLk6GJQsqaUBKTNV-1" source="Oi4V8ApNeVlHji8FJTxC-12" target="Oi4V8ApNeVlHji8FJTxC-16">
          <mxGeometry relative="1" as="geometry">
            <mxPoint x="540" y="530" as="targetPoint" />
          </mxGeometry>
        </mxCell>
        <mxCell id="Oi4V8ApNeVlHji8FJTxC-12" value="a!=0" style="rhombus;whiteSpace=wrap;html=1;" vertex="1" parent="WIyWlLk6GJQsqaUBKTNV-1">
          <mxGeometry x="345" y="490" width="110" height="80" as="geometry" />
        </mxCell>
        <mxCell id="Oi4V8ApNeVlHji8FJTxC-18" value="" style="edgeStyle=orthogonalEdgeStyle;rounded=0;orthogonalLoop=1;jettySize=auto;html=1;" edge="1" parent="WIyWlLk6GJQsqaUBKTNV-1" source="Oi4V8ApNeVlHji8FJTxC-16" target="Oi4V8ApNeVlHji8FJTxC-17">
          <mxGeometry relative="1" as="geometry" />
        </mxCell>
        <mxCell id="Oi4V8ApNeVlHji8FJTxC-16" value="Print&lt;br&gt;&quot;Phương trình có nghiệm duy nhất&quot;&lt;br&gt;x = -b / a" style="shape=parallelogram;perimeter=parallelogramPerimeter;whiteSpace=wrap;html=1;fixedSize=1;" vertex="1" parent="WIyWlLk6GJQsqaUBKTNV-1">
          <mxGeometry x="285" y="620" width="230" height="70" as="geometry" />
        </mxCell>
        <mxCell id="Oi4V8ApNeVlHji8FJTxC-17" value="End" style="ellipse;whiteSpace=wrap;html=1;" vertex="1" parent="WIyWlLk6GJQsqaUBKTNV-1">
          <mxGeometry x="340" y="740" width="120" height="60" as="geometry" />
        </mxCell>
        <mxCell id="Oi4V8ApNeVlHji8FJTxC-21" value="" style="endArrow=classic;html=1;entryX=1;entryY=0.5;entryDx=0;entryDy=0;rounded=0;" edge="1" parent="WIyWlLk6GJQsqaUBKTNV-1" target="Oi4V8ApNeVlHji8FJTxC-17">
          <mxGeometry width="50" height="50" relative="1" as="geometry">
            <mxPoint x="760" y="270" as="sourcePoint" />
            <mxPoint x="760" y="800" as="targetPoint" />
            <Array as="points">
              <mxPoint x="760" y="770" />
            </Array>
          </mxGeometry>
        </mxCell>
        <mxCell id="Oi4V8ApNeVlHji8FJTxC-22" value="False" style="text;html=1;strokeColor=none;fillColor=none;align=center;verticalAlign=middle;whiteSpace=wrap;rounded=0;" vertex="1" parent="WIyWlLk6GJQsqaUBKTNV-1">
          <mxGeometry x="360" y="330" width="40" height="20" as="geometry" />
        </mxCell>
        <mxCell id="Oi4V8ApNeVlHji8FJTxC-23" value="False" style="text;html=1;strokeColor=none;fillColor=none;align=center;verticalAlign=middle;whiteSpace=wrap;rounded=0;" vertex="1" parent="WIyWlLk6GJQsqaUBKTNV-1">
          <mxGeometry x="360" y="460" width="40" height="20" as="geometry" />
        </mxCell>
        <mxCell id="Oi4V8ApNeVlHji8FJTxC-24" value="True" style="text;html=1;strokeColor=none;fillColor=none;align=center;verticalAlign=middle;whiteSpace=wrap;rounded=0;" vertex="1" parent="WIyWlLk6GJQsqaUBKTNV-1">
          <mxGeometry x="360" y="584.5" width="40" height="20" as="geometry" />
        </mxCell>
        <mxCell id="Oi4V8ApNeVlHji8FJTxC-25" value="True" style="text;html=1;strokeColor=none;fillColor=none;align=center;verticalAlign=middle;whiteSpace=wrap;rounded=0;" vertex="1" parent="WIyWlLk6GJQsqaUBKTNV-1">
          <mxGeometry x="500" y="250" width="40" height="20" as="geometry" />
        </mxCell>
        <mxCell id="Oi4V8ApNeVlHji8FJTxC-26" value="True" style="text;html=1;strokeColor=none;fillColor=none;align=center;verticalAlign=middle;whiteSpace=wrap;rounded=0;" vertex="1" parent="WIyWlLk6GJQsqaUBKTNV-1">
          <mxGeometry x="500" y="380" width="40" height="20" as="geometry" />
        </mxCell>
      </root>
    </mxGraphModel>
  </diagram>
</mxfile>
